<svg width="709" height="202" viewBox="0 0 709 202" fill="none" xmlns="http://www.w3.org/2000/svg">
<path d="M48.5 0L0 84L19.5 120L89.5 0H48.5Z" fill="#19286D"/>
<path d="M71.5 169H25.5L122.5 0H169.5L71.5 169Z" fill="#19286D"/>
<path d="M194.5 85L174.5 50L104.5 169L145.5 202V169L194.5 85Z" fill="#19286D"/>
<path d="M226.974 115.935H229.991L233.814 128.049L237.682 115.935H240.611L235.118 133H232.467L226.974 115.935ZM225.611 115.935H228.482L229.039 128.43V133H225.611V115.935ZM239.117 115.935H242.003V133H238.59V128.43L239.117 115.935ZM255.655 130.129V133H247.643V130.129H255.655ZM248.653 115.935V133H245.24V115.935H248.653ZM254.586 122.746V125.603H247.643V122.746H254.586ZM255.611 115.935V118.82H247.643V115.935H255.611ZM259.376 115.935H262.394L266.217 128.049L270.084 115.935H273.014L267.521 133H264.869L259.376 115.935ZM258.014 115.935H260.885L261.441 128.43V133H258.014V115.935ZM271.52 115.935H274.405V133H270.992V128.43L271.52 115.935ZM287.706 130.129V133H280.03V130.129H287.706ZM281.056 115.935V133H277.643V115.935H281.056ZM300.45 130.129V133H292.438V130.129H300.45ZM293.448 115.935V133H290.035V115.935H293.448ZM299.381 122.746V125.603H292.438V122.746H299.381ZM300.406 115.935V118.82H292.438V115.935H300.406ZM306.222 115.935V133H302.809V115.935H306.222ZM315.333 115.935L309.356 124.431L305.841 128.43L305.006 125.061L307.408 121.501L311.1 115.935H315.333ZM311.466 133L307.188 125.163L309.693 122.951L315.523 133H311.466ZM327.55 130.129V133H319.537V130.129H327.55ZM320.548 115.935V133H317.135V115.935H320.548ZM326.48 122.746V125.603H319.537V122.746H326.48ZM327.506 115.935V118.82H319.537V115.935H327.506ZM336.969 115.935V133H333.57V115.935H336.969ZM341.598 115.935V118.82H329.015V115.935H341.598ZM351.002 115.935V133H347.604V115.935H351.002ZM355.631 115.935V118.82H343.048V115.935H355.631ZM361.563 115.935V133H358.136V115.935H361.563ZM368.36 115.935V133H364.947V115.935H368.36ZM377.472 115.935L371.495 124.431L367.979 128.43L367.145 125.061L369.547 121.501L373.238 115.935H377.472ZM373.604 133L369.327 125.163L371.832 122.951L377.662 133H373.604ZM392.267 125.588H388.487L388.458 123.098H391.9C392.359 123.098 392.745 123.02 393.058 122.863C393.38 122.697 393.624 122.458 393.79 122.146C393.966 121.833 394.054 121.452 394.054 121.003C394.054 120.485 393.971 120.065 393.805 119.743C393.639 119.421 393.395 119.187 393.072 119.04C392.75 118.894 392.35 118.82 391.871 118.82H389.601V133H386.188V115.935H391.695C392.594 115.935 393.399 116.032 394.112 116.228C394.825 116.413 395.431 116.701 395.929 117.092C396.427 117.473 396.808 117.961 397.071 118.557C397.335 119.143 397.467 119.831 397.467 120.622C397.467 121.315 397.315 121.965 397.013 122.57C396.71 123.166 396.241 123.654 395.606 124.035C394.981 124.406 394.171 124.606 393.175 124.636L392.267 125.588ZM392.149 133H387.477L388.883 130.129H392.149C392.667 130.129 393.087 130.036 393.409 129.851C393.731 129.665 393.966 129.406 394.112 129.074C394.269 128.742 394.347 128.361 394.347 127.932C394.347 127.453 394.278 127.043 394.142 126.701C394.005 126.35 393.785 126.076 393.482 125.881C393.18 125.686 392.774 125.588 392.267 125.588H389.146L389.161 123.098H393.043L393.834 124.079C394.791 124.05 395.553 124.235 396.119 124.636C396.695 125.026 397.11 125.534 397.364 126.159C397.628 126.784 397.76 127.434 397.76 128.107C397.76 128.938 397.638 129.66 397.394 130.275C397.149 130.891 396.788 131.398 396.31 131.799C395.841 132.199 395.255 132.502 394.552 132.707C393.858 132.902 393.058 133 392.149 133ZM407.032 119.523L402.872 133H399.43L405.216 115.935H407.472L407.032 119.523ZM410.65 133L406.461 119.509L406.036 115.935H408.336L414.093 133H410.65ZM410.753 126.657V129.353H402.418V126.657H410.753ZM428.155 124.035V130.861C427.911 131.184 427.54 131.53 427.042 131.901C426.554 132.272 425.914 132.59 425.123 132.854C424.342 133.107 423.375 133.234 422.223 133.234C421.217 133.234 420.304 133.054 419.483 132.692C418.663 132.321 417.95 131.784 417.345 131.081C416.749 130.378 416.285 129.519 415.953 128.503C415.631 127.478 415.47 126.306 415.47 124.987V123.947C415.47 122.629 415.621 121.462 415.924 120.446C416.236 119.421 416.676 118.557 417.242 117.854C417.818 117.15 418.507 116.618 419.308 116.257C420.118 115.886 421.017 115.7 422.003 115.7C423.351 115.7 424.454 115.944 425.313 116.433C426.173 116.911 426.832 117.58 427.291 118.439C427.75 119.289 428.038 120.271 428.155 121.384H424.83C424.752 120.808 424.61 120.31 424.405 119.89C424.2 119.46 423.912 119.133 423.541 118.908C423.17 118.684 422.682 118.571 422.076 118.571C421.559 118.571 421.1 118.684 420.699 118.908C420.309 119.133 419.977 119.47 419.703 119.919C419.439 120.368 419.239 120.925 419.103 121.589C418.966 122.253 418.897 123.029 418.897 123.918V124.987C418.897 125.866 418.971 126.643 419.117 127.316C419.273 127.99 419.498 128.557 419.791 129.016C420.094 129.465 420.46 129.807 420.89 130.041C421.329 130.266 421.832 130.378 422.398 130.378C423.131 130.378 423.663 130.28 423.995 130.085C424.337 129.89 424.586 129.709 424.742 129.543V126.613H421.944V124.035H428.155ZM435.787 133H432.521L432.55 130.129H435.787C436.705 130.129 437.438 129.929 437.984 129.528C438.531 129.118 438.927 128.522 439.171 127.741C439.415 126.95 439.537 125.993 439.537 124.87V124.05C439.537 123.2 439.469 122.448 439.332 121.794C439.195 121.14 438.98 120.593 438.688 120.153C438.395 119.704 438.009 119.372 437.53 119.157C437.062 118.933 436.5 118.82 435.846 118.82H432.462V115.935H435.846C436.9 115.935 437.862 116.13 438.731 116.521C439.601 116.911 440.348 117.468 440.973 118.19C441.607 118.913 442.096 119.772 442.438 120.769C442.779 121.765 442.95 122.868 442.95 124.079V124.87C442.95 126.481 442.647 127.902 442.042 129.133C441.446 130.354 440.611 131.306 439.537 131.989C438.473 132.663 437.223 133 435.787 133ZM434.483 115.935V133H431.07V115.935H434.483ZM452.091 119.523L447.931 133H444.488L450.274 115.935H452.53L452.091 119.523ZM455.709 133L451.52 119.509L451.095 115.935H453.395L459.151 133H455.709ZM455.812 126.657V129.353H447.477V126.657H455.812ZM461.144 115.935H466.915C467.823 115.935 468.629 116.047 469.332 116.271C470.045 116.496 470.646 116.828 471.134 117.268C471.632 117.697 472.013 118.234 472.276 118.879C472.54 119.514 472.672 120.251 472.672 121.091C472.672 122.019 472.53 122.814 472.247 123.479C471.974 124.133 471.588 124.675 471.09 125.104C470.592 125.534 469.996 125.881 469.303 126.145L468.248 126.789H463.458L463.429 123.918H466.856C467.394 123.918 467.838 123.815 468.189 123.61C468.541 123.405 468.805 123.112 468.98 122.731C469.166 122.341 469.259 121.892 469.259 121.384C469.259 120.856 469.176 120.402 469.01 120.021C468.854 119.631 468.6 119.333 468.248 119.128C467.906 118.923 467.462 118.82 466.915 118.82H464.557V133H461.144V115.935ZM469.581 133L466.153 125.441L469.757 125.412L473.243 132.839V133H469.581ZM485.548 130.129V133H477.872V130.129H485.548ZM478.897 115.935V133H475.484V115.935H478.897ZM494.22 119.523L490.06 133H486.617L492.403 115.935H494.659L494.22 119.523ZM497.838 133L493.648 119.509L493.224 115.935H495.523L501.28 133H497.838ZM497.94 126.657V129.353H489.605V126.657H497.94ZM504.62 115.935H507.638L511.461 128.049L515.328 115.935H518.258L512.765 133H510.113L504.62 115.935ZM503.258 115.935H506.129L506.686 128.43V133H503.258V115.935ZM516.764 115.935H519.649V133H516.236V128.43L516.764 115.935ZM529.229 119.523L525.069 133H521.627L527.413 115.935H529.669L529.229 119.523ZM532.848 133L528.658 119.509L528.233 115.935H530.533L536.29 133H532.848ZM532.95 126.657V129.353H524.615V126.657H532.95ZM548.331 130.129V133H540.655V130.129H548.331ZM541.681 115.935V133H538.268V115.935H541.681ZM557.003 119.523L552.843 133H549.4L555.187 115.935H557.442L557.003 119.523ZM560.621 133L556.432 119.509L556.007 115.935H558.307L564.063 133H560.621ZM560.724 126.657V129.353H552.389V126.657H560.724ZM566.056 115.935H571.827C572.735 115.935 573.541 116.047 574.244 116.271C574.957 116.496 575.558 116.828 576.046 117.268C576.544 117.697 576.925 118.234 577.188 118.879C577.452 119.514 577.584 120.251 577.584 121.091C577.584 122.019 577.442 122.814 577.159 123.479C576.886 124.133 576.5 124.675 576.002 125.104C575.504 125.534 574.908 125.881 574.215 126.145L573.16 126.789H568.37L568.341 123.918H571.769C572.306 123.918 572.75 123.815 573.102 123.61C573.453 123.405 573.717 123.112 573.893 122.731C574.078 122.341 574.171 121.892 574.171 121.384C574.171 120.856 574.088 120.402 573.922 120.021C573.766 119.631 573.512 119.333 573.16 119.128C572.818 118.923 572.374 118.82 571.827 118.82H569.469V133H566.056V115.935ZM574.493 133L571.065 125.441L574.669 125.412L578.155 132.839V133H574.493ZM585.113 133H581.847L581.876 130.129H585.113C586.031 130.129 586.764 129.929 587.311 129.528C587.857 129.118 588.253 128.522 588.497 127.741C588.741 126.95 588.863 125.993 588.863 124.87V124.05C588.863 123.2 588.795 122.448 588.658 121.794C588.521 121.14 588.307 120.593 588.014 120.153C587.721 119.704 587.335 119.372 586.856 119.157C586.388 118.933 585.826 118.82 585.172 118.82H581.788V115.935H585.172C586.227 115.935 587.188 116.13 588.058 116.521C588.927 116.911 589.674 117.468 590.299 118.19C590.934 118.913 591.422 119.772 591.764 120.769C592.105 121.765 592.276 122.868 592.276 124.079V124.87C592.276 126.481 591.974 127.902 591.368 129.133C590.772 130.354 589.938 131.306 588.863 131.989C587.799 132.663 586.549 133 585.113 133ZM583.81 115.935V133H580.396V115.935H583.81ZM599.234 125.456L603.131 115.935H606.866L601.651 127.331H599.762L599.234 125.456ZM597.184 115.935L601.109 125.544L600.523 127.331H598.648L593.448 115.935H597.184ZM601.812 124.987V133H598.399V124.987H601.812ZM234.078 156.393L238.399 160.084L236.217 162.076L231.998 158.37L234.078 156.393ZM238.399 150.079V150.87C238.399 152.169 238.238 153.336 237.916 154.371C237.604 155.396 237.149 156.275 236.554 157.008C235.968 157.73 235.27 158.282 234.459 158.663C233.658 159.044 232.77 159.234 231.793 159.234C230.816 159.234 229.923 159.044 229.112 158.663C228.312 158.282 227.613 157.73 227.018 157.008C226.422 156.275 225.963 155.396 225.641 154.371C225.318 153.336 225.157 152.169 225.157 150.87V150.079C225.157 148.78 225.313 147.618 225.626 146.593C225.948 145.558 226.402 144.679 226.988 143.956C227.584 143.224 228.282 142.667 229.083 142.286C229.894 141.896 230.787 141.7 231.764 141.7C232.74 141.7 233.634 141.896 234.444 142.286C235.255 142.667 235.953 143.224 236.539 143.956C237.135 144.679 237.594 145.558 237.916 146.593C238.238 147.618 238.399 148.78 238.399 150.079ZM235.001 150.87V150.05C235.001 149.171 234.928 148.395 234.781 147.721C234.635 147.037 234.42 146.466 234.137 146.007C233.863 145.538 233.526 145.187 233.126 144.952C232.726 144.708 232.271 144.586 231.764 144.586C231.266 144.586 230.816 144.708 230.416 144.952C230.016 145.187 229.679 145.538 229.405 146.007C229.132 146.466 228.922 147.037 228.775 147.721C228.629 148.395 228.556 149.171 228.556 150.05V150.87C228.556 151.749 228.629 152.53 228.775 153.214C228.922 153.888 229.132 154.459 229.405 154.928C229.688 155.396 230.03 155.753 230.431 155.997C230.841 156.241 231.295 156.363 231.793 156.363C232.301 156.363 232.75 156.241 233.141 155.997C233.541 155.753 233.878 155.396 234.151 154.928C234.425 154.459 234.635 153.888 234.781 153.214C234.928 152.53 235.001 151.749 235.001 150.87ZM247.569 145.523L243.409 159H239.967L245.753 141.935H248.009L247.569 145.523ZM251.188 159L246.998 145.509L246.573 141.935H248.873L254.63 159H251.188ZM251.29 152.657V155.353H242.955V152.657H251.29ZM256.622 141.935H262.394C263.302 141.935 264.107 142.047 264.811 142.271C265.523 142.496 266.124 142.828 266.612 143.268C267.11 143.697 267.491 144.234 267.755 144.879C268.019 145.514 268.15 146.251 268.15 147.091C268.15 148.019 268.009 148.814 267.726 149.479C267.452 150.133 267.066 150.675 266.568 151.104C266.07 151.534 265.475 151.881 264.781 152.145L263.727 152.789H258.937L258.907 149.918H262.335C262.872 149.918 263.316 149.815 263.668 149.61C264.02 149.405 264.283 149.112 264.459 148.731C264.645 148.341 264.737 147.892 264.737 147.384C264.737 146.856 264.654 146.402 264.488 146.021C264.332 145.631 264.078 145.333 263.727 145.128C263.385 144.923 262.94 144.82 262.394 144.82H260.035V159H256.622V141.935ZM265.06 159L261.632 151.441L265.235 151.412L268.722 158.839V159H265.06ZM277.071 153.595V141.935H280.499V153.595C280.499 154.776 280.27 155.792 279.811 156.642C279.361 157.481 278.751 158.126 277.979 158.575C277.208 159.015 276.344 159.234 275.387 159.234C274.342 159.234 273.414 159.044 272.604 158.663C271.803 158.272 271.173 157.677 270.714 156.876C270.255 156.075 270.025 155.055 270.025 153.814H273.438C273.438 154.41 273.517 154.898 273.673 155.279C273.839 155.66 274.068 155.938 274.361 156.114C274.654 156.29 274.996 156.378 275.387 156.378C275.748 156.378 276.051 156.275 276.295 156.07C276.549 155.855 276.739 155.543 276.866 155.133C277.003 154.713 277.071 154.2 277.071 153.595ZM288.16 151.456L292.057 141.935H295.792L290.577 153.331H288.688L288.16 151.456ZM286.109 141.935L290.035 151.544L289.449 153.331H287.574L282.374 141.935H286.109ZM290.738 150.987V159H287.325V150.987H290.738ZM307.774 156.129V159H300.099V156.129H307.774ZM301.124 141.935V159H297.711V141.935H301.124ZM316.446 145.523L312.286 159H308.844L314.63 141.935H316.886L316.446 145.523ZM320.064 159L315.875 145.509L315.45 141.935H317.75L323.507 159H320.064ZM320.167 152.657V155.353H311.832V152.657H320.167ZM338.155 141.935V159H334.742L328.824 147.809V159H325.484V141.935H328.897L334.815 153.185V141.935H338.155ZM346.109 159H342.843L342.872 156.129H346.109C347.027 156.129 347.76 155.929 348.307 155.528C348.854 155.118 349.249 154.522 349.493 153.741C349.737 152.95 349.859 151.993 349.859 150.87V150.05C349.859 149.2 349.791 148.448 349.654 147.794C349.518 147.14 349.303 146.593 349.01 146.153C348.717 145.704 348.331 145.372 347.853 145.157C347.384 144.933 346.822 144.82 346.168 144.82H342.784V141.935H346.168C347.223 141.935 348.185 142.13 349.054 142.521C349.923 142.911 350.67 143.468 351.295 144.19C351.93 144.913 352.418 145.772 352.76 146.769C353.102 147.765 353.272 148.868 353.272 150.079V150.87C353.272 152.481 352.97 153.902 352.364 155.133C351.769 156.354 350.934 157.306 349.859 157.989C348.795 158.663 347.545 159 346.109 159ZM344.806 141.935V159H341.393V141.935H344.806ZM360.23 151.456L364.127 141.935H367.862L362.647 153.331H360.758L360.23 151.456ZM358.18 141.935L362.105 151.544L361.52 153.331H359.645L354.444 141.935H358.18ZM362.809 150.987V159H359.396V150.987H362.809ZM369.796 141.935H375.567C376.476 141.935 377.281 142.047 377.984 142.271C378.697 142.496 379.298 142.828 379.786 143.268C380.284 143.697 380.665 144.234 380.929 144.879C381.192 145.514 381.324 146.251 381.324 147.091C381.324 148.019 381.183 148.814 380.899 149.479C380.626 150.133 380.24 150.675 379.742 151.104C379.244 151.534 378.648 151.881 377.955 152.145L376.9 152.789H372.11L372.081 149.918H375.509C376.046 149.918 376.49 149.815 376.842 149.61C377.193 149.405 377.457 149.112 377.633 148.731C377.818 148.341 377.911 147.892 377.911 147.384C377.911 146.856 377.828 146.402 377.662 146.021C377.506 145.631 377.252 145.333 376.9 145.128C376.559 144.923 376.114 144.82 375.567 144.82H373.209V159H369.796V141.935ZM378.233 159L374.806 151.441L378.409 151.412L381.896 158.839V159H378.233ZM392.486 141.935H395.885V153.17C395.885 154.488 395.626 155.602 395.108 156.51C394.601 157.408 393.897 158.087 392.999 158.546C392.11 159.005 391.095 159.234 389.952 159.234C388.78 159.234 387.745 159.005 386.847 158.546C385.958 158.087 385.255 157.408 384.737 156.51C384.229 155.602 383.976 154.488 383.976 153.17V141.935H387.374V153.17C387.374 153.912 387.472 154.522 387.667 155.001C387.872 155.47 388.165 155.816 388.546 156.041C388.937 156.266 389.405 156.378 389.952 156.378C390.489 156.378 390.948 156.266 391.329 156.041C391.71 155.816 391.998 155.47 392.193 155.001C392.389 154.522 392.486 153.912 392.486 153.17V141.935ZM409.464 141.935V159H406.036V141.935H409.464ZM425.519 141.935V159H422.105L416.188 147.809V159H412.848V141.935H416.261L422.179 153.185V141.935H425.519ZM435.816 141.935V159H432.418V141.935H435.816ZM440.445 141.935V144.82H427.862V141.935H440.445ZM453.204 156.129V159H445.191V156.129H453.204ZM446.202 141.935V159H442.789V141.935H446.202ZM452.135 148.746V151.603H445.191V148.746H452.135ZM453.16 141.935V144.82H445.191V141.935H453.16ZM467.853 150.035V156.861C467.608 157.184 467.237 157.53 466.739 157.901C466.251 158.272 465.611 158.59 464.82 158.854C464.039 159.107 463.072 159.234 461.92 159.234C460.914 159.234 460.001 159.054 459.181 158.692C458.36 158.321 457.647 157.784 457.042 157.081C456.446 156.378 455.982 155.519 455.65 154.503C455.328 153.478 455.167 152.306 455.167 150.987V149.947C455.167 148.629 455.318 147.462 455.621 146.446C455.934 145.421 456.373 144.557 456.939 143.854C457.516 143.15 458.204 142.618 459.005 142.257C459.815 141.886 460.714 141.7 461.7 141.7C463.048 141.7 464.151 141.944 465.011 142.433C465.87 142.911 466.529 143.58 466.988 144.439C467.447 145.289 467.735 146.271 467.853 147.384H464.527C464.449 146.808 464.308 146.31 464.103 145.89C463.897 145.46 463.609 145.133 463.238 144.908C462.867 144.684 462.379 144.571 461.773 144.571C461.256 144.571 460.797 144.684 460.396 144.908C460.006 145.133 459.674 145.47 459.4 145.919C459.137 146.368 458.937 146.925 458.8 147.589C458.663 148.253 458.595 149.029 458.595 149.918V150.987C458.595 151.866 458.668 152.643 458.814 153.316C458.971 153.99 459.195 154.557 459.488 155.016C459.791 155.465 460.157 155.807 460.587 156.041C461.026 156.266 461.529 156.378 462.096 156.378C462.828 156.378 463.36 156.28 463.692 156.085C464.034 155.89 464.283 155.709 464.439 155.543V152.613H461.642V150.035H467.853ZM470.782 141.935H476.554C477.462 141.935 478.268 142.047 478.971 142.271C479.684 142.496 480.284 142.828 480.772 143.268C481.271 143.697 481.651 144.234 481.915 144.879C482.179 145.514 482.311 146.251 482.311 147.091C482.311 148.019 482.169 148.814 481.886 149.479C481.612 150.133 481.227 150.675 480.729 151.104C480.23 151.534 479.635 151.881 478.941 152.145L477.887 152.789H473.097L473.067 149.918H476.495C477.032 149.918 477.477 149.815 477.828 149.61C478.18 149.405 478.443 149.112 478.619 148.731C478.805 148.341 478.897 147.892 478.897 147.384C478.897 146.856 478.814 146.402 478.648 146.021C478.492 145.631 478.238 145.333 477.887 145.128C477.545 144.923 477.101 144.82 476.554 144.82H474.195V159H470.782V141.935ZM479.22 159L475.792 151.441L479.396 151.412L482.882 158.839V159H479.22ZM491.466 145.523L487.306 159H483.863L489.649 141.935H491.905L491.466 145.523ZM495.084 159L490.895 145.509L490.47 141.935H492.77L498.526 159H495.084ZM495.187 152.657V155.353H486.852V152.657H495.187ZM506.627 141.935V159H503.229V141.935H506.627ZM511.256 141.935V144.82H498.673V141.935H511.256ZM526.417 150.079V150.87C526.417 152.169 526.256 153.336 525.934 154.371C525.611 155.396 525.157 156.275 524.571 157.008C523.995 157.73 523.302 158.282 522.491 158.663C521.681 159.044 520.787 159.234 519.811 159.234C518.834 159.234 517.94 159.044 517.13 158.663C516.329 158.282 515.631 157.73 515.035 157.008C514.439 156.275 513.976 155.396 513.644 154.371C513.321 153.336 513.16 152.169 513.16 150.87V150.079C513.16 148.78 513.321 147.618 513.644 146.593C513.966 145.558 514.425 144.679 515.021 143.956C515.616 143.224 516.314 142.667 517.115 142.286C517.926 141.896 518.814 141.7 519.781 141.7C520.758 141.7 521.651 141.896 522.462 142.286C523.282 142.667 523.985 143.224 524.571 143.956C525.157 144.679 525.611 145.558 525.934 146.593C526.256 147.618 526.417 148.78 526.417 150.079ZM523.004 150.87V150.05C523.004 149.171 522.931 148.395 522.784 147.721C522.638 147.037 522.423 146.466 522.14 146.007C521.866 145.538 521.529 145.187 521.129 144.952C520.738 144.708 520.289 144.586 519.781 144.586C519.283 144.586 518.834 144.708 518.434 144.952C518.043 145.187 517.706 145.538 517.423 146.007C517.149 146.466 516.939 147.037 516.793 147.721C516.646 148.395 516.573 149.171 516.573 150.05V150.87C516.573 151.749 516.646 152.53 516.793 153.214C516.939 153.888 517.154 154.459 517.438 154.928C517.721 155.396 518.062 155.753 518.463 155.997C518.863 156.241 519.312 156.363 519.811 156.363C520.318 156.363 520.768 156.241 521.158 155.997C521.549 155.753 521.881 155.396 522.154 154.928C522.438 154.459 522.647 153.888 522.784 153.214C522.931 152.53 523.004 151.749 523.004 150.87ZM529.229 141.935H535.001C535.909 141.935 536.715 142.047 537.418 142.271C538.131 142.496 538.731 142.828 539.22 143.268C539.718 143.697 540.099 144.234 540.362 144.879C540.626 145.514 540.758 146.251 540.758 147.091C540.758 148.019 540.616 148.814 540.333 149.479C540.06 150.133 539.674 150.675 539.176 151.104C538.678 151.534 538.082 151.881 537.389 152.145L536.334 152.789H531.544L531.515 149.918H534.942C535.479 149.918 535.924 149.815 536.275 149.61C536.627 149.405 536.891 149.112 537.066 148.731C537.252 148.341 537.345 147.892 537.345 147.384C537.345 146.856 537.262 146.402 537.096 146.021C536.939 145.631 536.686 145.333 536.334 145.128C535.992 144.923 535.548 144.82 535.001 144.82H532.643V159H529.229V141.935ZM537.667 159L534.239 151.441L537.843 151.412L541.329 158.839V159H537.667ZM547.789 151.456L551.686 141.935H555.421L550.206 153.331H548.316L547.789 151.456ZM545.738 141.935L549.664 151.544L549.078 153.331H547.203L542.003 141.935H545.738ZM550.367 150.987V159H546.954V150.987H550.367Z" fill="black"/>
<path d="M259.77 101.37C254.87 101.37 251.865 99.1813 250.754 94.804C248.729 95.588 246.344 95.98 243.6 95.98C238.308 95.98 234.257 94.4773 231.448 91.472C228.639 88.4667 227.234 84.22 227.234 78.732V42.668C227.234 37.18 228.639 32.9333 231.448 29.928C234.257 26.9227 238.308 25.42 243.6 25.42C248.892 25.42 252.943 26.9227 255.752 29.928C258.561 32.9333 259.966 37.18 259.966 42.668V78.732C259.966 83.3053 258.953 87.062 256.928 90.002C257.32 90.6553 257.81 91.08 258.398 91.276C258.986 91.472 259.835 91.57 260.946 91.57H262.612V101.37H259.77ZM243.6 86.18C247.324 86.18 249.186 83.926 249.186 79.418V41.982C249.186 37.474 247.324 35.22 243.6 35.22C239.876 35.22 238.014 37.474 238.014 41.982V79.418C238.014 83.926 239.876 86.18 243.6 86.18ZM275.395 26.4H289.997L301.169 95H290.389L288.429 81.378V81.574H276.179L274.219 95H264.223L275.395 26.4ZM287.155 72.264L282.353 38.356H282.157L277.453 72.264H287.155ZM306.399 26.4H322.373C327.926 26.4 331.977 27.7067 334.525 30.32C337.073 32.868 338.347 36.8207 338.347 42.178V46.392C338.347 53.5133 335.995 58.0213 331.291 59.916V60.112C333.904 60.896 335.734 62.4967 336.779 64.914C337.89 67.3313 338.445 70.5653 338.445 74.616V86.67C338.445 88.63 338.51 90.2307 338.641 91.472C338.772 92.648 339.098 93.824 339.621 95H328.645C328.253 93.8893 327.992 92.844 327.861 91.864C327.73 90.884 327.665 89.12 327.665 86.572V74.028C327.665 70.892 327.142 68.7033 326.097 67.462C325.117 66.2207 323.386 65.6 320.903 65.6H317.179V95H306.399V26.4ZM321.099 55.8C323.255 55.8 324.856 55.2447 325.901 54.134C327.012 53.0233 327.567 51.1613 327.567 48.548V43.256C327.567 40.7733 327.11 38.9767 326.195 37.866C325.346 36.7553 323.974 36.2 322.079 36.2H317.179V55.8H321.099ZM348.472 95.392C346.512 95.392 344.846 95.2613 343.474 95V85.2C344.52 85.4613 345.696 85.592 347.002 85.592C349.158 85.592 350.759 85.0693 351.804 84.024C352.85 82.9133 353.372 81.2473 353.372 79.026V26.4H364.152V78.732C364.152 84.3507 362.846 88.532 360.232 91.276C357.684 94.02 353.764 95.392 348.472 95.392ZM381.758 65.796L368.724 26.4H380.19L387.54 51.586H387.736L395.086 26.4H405.572L392.538 65.796V95H381.758V65.796ZM441.705 95.98C436.413 95.98 432.363 94.4773 429.553 91.472C426.744 88.4667 425.339 84.22 425.339 78.732V42.668C425.339 37.18 426.744 32.9333 429.553 29.928C432.363 26.9227 436.413 25.42 441.705 25.42C446.997 25.42 451.048 26.9227 453.857 29.928C456.667 32.9333 458.071 37.18 458.071 42.668V78.732C458.071 84.22 456.667 88.4667 453.857 91.472C451.048 94.4773 446.997 95.98 441.705 95.98ZM441.705 86.18C445.429 86.18 447.291 83.926 447.291 79.418V41.982C447.291 37.474 445.429 35.22 441.705 35.22C437.981 35.22 436.119 37.474 436.119 41.982V79.418C436.119 83.926 437.981 86.18 441.705 86.18ZM465.362 26.4H481.336C486.889 26.4 490.94 27.7067 493.488 30.32C496.036 32.868 497.31 36.8207 497.31 42.178V46.392C497.31 53.5133 494.958 58.0213 490.254 59.916V60.112C492.867 60.896 494.696 62.4967 495.742 64.914C496.852 67.3313 497.408 70.5653 497.408 74.616V86.67C497.408 88.63 497.473 90.2307 497.604 91.472C497.734 92.648 498.061 93.824 498.584 95H487.608C487.216 93.8893 486.954 92.844 486.824 91.864C486.693 90.884 486.628 89.12 486.628 86.572V74.028C486.628 70.892 486.105 68.7033 485.06 67.462C484.08 66.2207 482.348 65.6 479.866 65.6H476.142V95H465.362V26.4ZM480.062 55.8C482.218 55.8 483.818 55.2447 484.864 54.134C485.974 53.0233 486.53 51.1613 486.53 48.548V43.256C486.53 40.7733 486.072 38.9767 485.158 37.866C484.308 36.7553 482.936 36.2 481.042 36.2H476.142V55.8H480.062ZM513.124 36.2H501.854V26.4H535.174V36.2H523.904V95H513.124V36.2ZM544.225 26.4H558.827L569.999 95H559.219L557.259 81.378V81.574H545.009L543.049 95H533.053L544.225 26.4ZM555.985 72.264L551.183 38.356H550.987L546.283 72.264H555.985ZM575.229 26.4H586.009V85.2H603.747V95H575.229V26.4ZM610.201 65.796L597.167 26.4H608.633L615.983 51.586H616.179L623.529 26.4H634.015L620.981 65.796V95H610.201V65.796ZM652.437 95.98C647.21 95.98 643.225 94.51 640.481 91.57C637.737 88.5647 636.365 84.2853 636.365 78.732V42.668C636.365 37.1147 637.737 32.868 640.481 29.928C643.225 26.9227 647.21 25.42 652.437 25.42C657.664 25.42 661.649 26.9227 664.393 29.928C667.137 32.868 668.509 37.1147 668.509 42.668V48.548H658.317V41.982C658.317 37.474 656.455 35.22 652.731 35.22C649.007 35.22 647.145 37.474 647.145 41.982V79.516C647.145 83.9587 649.007 86.18 652.731 86.18C656.455 86.18 658.317 83.9587 658.317 79.516V66.09H652.927V56.29H668.509V78.732C668.509 84.2853 667.137 88.5647 664.393 91.57C661.649 94.51 657.664 95.98 652.437 95.98ZM683.893 65.796L670.859 26.4H682.325L689.675 51.586H689.871L697.221 26.4H707.707L694.673 65.796V95H683.893V65.796Z" fill="#18286C"/>
<path d="M648.5 12H642C642.333 15.6667 645 23 653 23C661 23 663.667 15.6667 664 12H657.5C657.5 13.6667 656.6 17 653 17C649.4 17 648.5 13.6667 648.5 12Z" fill="#19286D"/>
</svg>
